<mxfile host="Electron" agent="Mozilla/5.0 (Windows NT 10.0; Win64; x64) AppleWebKit/537.36 (KHTML, like Gecko) draw.io/24.7.8 Chrome/128.0.6613.36 Electron/32.0.1 Safari/537.36" version="24.7.8" pages="6">
  <diagram id="RjCjhOEj5gRanv9xUhyw" name="UX">
    <mxGraphModel dx="782" dy="539" grid="1" gridSize="10" guides="1" tooltips="1" connect="1" arrows="1" fold="1" page="1" pageScale="1" pageWidth="1169" pageHeight="827" math="0" shadow="0">
      <root>
        <mxCell id="P6TlU-wPTZ_5G9GFOR1F-0" />
        <mxCell id="P6TlU-wPTZ_5G9GFOR1F-1" parent="P6TlU-wPTZ_5G9GFOR1F-0" />
        <mxCell id="P6TlU-wPTZ_5G9GFOR1F-30" value="&lt;b&gt;Input&lt;/b&gt;&lt;br&gt;&lt;br&gt;Plain text: Hello world!&lt;br&gt;Key: 3" style="text;html=1;strokeColor=none;fillColor=none;align=left;verticalAlign=top;whiteSpace=wrap;rounded=0;" parent="P6TlU-wPTZ_5G9GFOR1F-1" vertex="1">
          <mxGeometry x="320" y="160" width="130" height="70" as="geometry" />
        </mxCell>
        <mxCell id="P6TlU-wPTZ_5G9GFOR1F-31" value="&lt;b&gt;Output&lt;/b&gt;&lt;br&gt;&lt;br&gt;Cipher text: KHOORZRUOG" style="text;html=1;strokeColor=none;fillColor=none;align=left;verticalAlign=top;whiteSpace=wrap;rounded=0;horizontal=1;" parent="P6TlU-wPTZ_5G9GFOR1F-1" vertex="1">
          <mxGeometry x="320" y="240" width="160" height="60" as="geometry" />
        </mxCell>
      </root>
    </mxGraphModel>
  </diagram>
  <diagram name="Encode" id="GcXLMNfifwVAIiEV1o7Q">
    <mxGraphModel dx="882" dy="677" grid="1" gridSize="10" guides="1" tooltips="1" connect="1" arrows="1" fold="1" page="1" pageScale="1" pageWidth="1169" pageHeight="827" math="0" shadow="0">
      <root>
        <mxCell id="qPr7Wyt1u1uQ30_5zDNF-0" />
        <mxCell id="qPr7Wyt1u1uQ30_5zDNF-1" parent="qPr7Wyt1u1uQ30_5zDNF-0" />
        <mxCell id="qPr7Wyt1u1uQ30_5zDNF-2" style="edgeStyle=none;rounded=0;orthogonalLoop=1;jettySize=auto;html=1;exitX=0.5;exitY=1;exitDx=0;exitDy=0;endArrow=none;endFill=0;" parent="qPr7Wyt1u1uQ30_5zDNF-1" source="qPr7Wyt1u1uQ30_5zDNF-3" edge="1">
          <mxGeometry relative="1" as="geometry">
            <mxPoint x="540" y="160" as="targetPoint" />
          </mxGeometry>
        </mxCell>
        <mxCell id="qPr7Wyt1u1uQ30_5zDNF-3" value="Caesar Cipher - Encode" style="rounded=0;whiteSpace=wrap;html=1;" parent="qPr7Wyt1u1uQ30_5zDNF-1" vertex="1">
          <mxGeometry x="480" y="80" width="120" height="60" as="geometry" />
        </mxCell>
        <mxCell id="qPr7Wyt1u1uQ30_5zDNF-4" value="Get plain text message" style="rounded=0;whiteSpace=wrap;html=1;" parent="qPr7Wyt1u1uQ30_5zDNF-1" vertex="1">
          <mxGeometry x="160" y="200" width="120" height="60" as="geometry" />
        </mxCell>
        <mxCell id="qPr7Wyt1u1uQ30_5zDNF-7" value="Get valid key value" style="rounded=0;whiteSpace=wrap;html=1;" parent="qPr7Wyt1u1uQ30_5zDNF-1" vertex="1">
          <mxGeometry x="320" y="200" width="120" height="60" as="geometry" />
        </mxCell>
        <mxCell id="qPr7Wyt1u1uQ30_5zDNF-12" value="" style="endArrow=none;html=1;" parent="qPr7Wyt1u1uQ30_5zDNF-1" edge="1">
          <mxGeometry width="50" height="50" relative="1" as="geometry">
            <mxPoint x="220" y="160" as="sourcePoint" />
            <mxPoint x="860" y="160" as="targetPoint" />
          </mxGeometry>
        </mxCell>
        <mxCell id="qPr7Wyt1u1uQ30_5zDNF-14" style="edgeStyle=orthogonalEdgeStyle;rounded=0;orthogonalLoop=1;jettySize=auto;html=1;exitX=0.5;exitY=0;exitDx=0;exitDy=0;endArrow=none;endFill=0;" parent="qPr7Wyt1u1uQ30_5zDNF-1" source="qPr7Wyt1u1uQ30_5zDNF-15" edge="1">
          <mxGeometry relative="1" as="geometry">
            <mxPoint x="700" y="160" as="targetPoint" />
          </mxGeometry>
        </mxCell>
        <mxCell id="qPr7Wyt1u1uQ30_5zDNF-15" value="Loop for&lt;br&gt;each letter in&lt;br&gt;interim text" style="ellipse;whiteSpace=wrap;html=1;" parent="qPr7Wyt1u1uQ30_5zDNF-1" vertex="1">
          <mxGeometry x="640" y="200" width="120" height="60" as="geometry" />
        </mxCell>
        <mxCell id="qPr7Wyt1u1uQ30_5zDNF-22" value="Display cipher text" style="rounded=0;whiteSpace=wrap;html=1;" parent="qPr7Wyt1u1uQ30_5zDNF-1" vertex="1">
          <mxGeometry x="800" y="200" width="120" height="60" as="geometry" />
        </mxCell>
        <mxCell id="qPr7Wyt1u1uQ30_5zDNF-39" value="" style="endArrow=none;html=1;exitX=0.5;exitY=0;exitDx=0;exitDy=0;" parent="qPr7Wyt1u1uQ30_5zDNF-1" source="qPr7Wyt1u1uQ30_5zDNF-7" edge="1">
          <mxGeometry width="50" height="50" relative="1" as="geometry">
            <mxPoint x="440" y="360" as="sourcePoint" />
            <mxPoint x="380" y="160" as="targetPoint" />
          </mxGeometry>
        </mxCell>
        <mxCell id="qPr7Wyt1u1uQ30_5zDNF-40" value="" style="endArrow=none;html=1;exitX=0.5;exitY=0;exitDx=0;exitDy=0;" parent="qPr7Wyt1u1uQ30_5zDNF-1" source="qPr7Wyt1u1uQ30_5zDNF-4" edge="1">
          <mxGeometry width="50" height="50" relative="1" as="geometry">
            <mxPoint x="150" y="430" as="sourcePoint" />
            <mxPoint x="220" y="160" as="targetPoint" />
          </mxGeometry>
        </mxCell>
        <mxCell id="qPr7Wyt1u1uQ30_5zDNF-41" value="" style="endArrow=none;html=1;" parent="qPr7Wyt1u1uQ30_5zDNF-1" source="qPr7Wyt1u1uQ30_5zDNF-22" edge="1">
          <mxGeometry width="50" height="50" relative="1" as="geometry">
            <mxPoint x="600" y="360" as="sourcePoint" />
            <mxPoint x="860" y="160" as="targetPoint" />
          </mxGeometry>
        </mxCell>
        <mxCell id="qPr7Wyt1u1uQ30_5zDNF-16" style="edgeStyle=none;rounded=0;orthogonalLoop=1;jettySize=auto;html=1;exitX=0.5;exitY=0;exitDx=0;exitDy=0;endArrow=none;endFill=0;" parent="qPr7Wyt1u1uQ30_5zDNF-1" source="qPr7Wyt1u1uQ30_5zDNF-17" edge="1">
          <mxGeometry relative="1" as="geometry">
            <mxPoint x="700" y="340" as="targetPoint" />
          </mxGeometry>
        </mxCell>
        <mxCell id="gLv9NGvtsG2GSJEetIHr-0" style="edgeStyle=orthogonalEdgeStyle;rounded=0;orthogonalLoop=1;jettySize=auto;html=1;exitX=0.5;exitY=1;exitDx=0;exitDy=0;entryX=0.5;entryY=0;entryDx=0;entryDy=0;endArrow=none;endFill=0;" parent="qPr7Wyt1u1uQ30_5zDNF-1" source="qPr7Wyt1u1uQ30_5zDNF-17" target="qPr7Wyt1u1uQ30_5zDNF-19" edge="1">
          <mxGeometry relative="1" as="geometry" />
        </mxCell>
        <mxCell id="qPr7Wyt1u1uQ30_5zDNF-17" value="Convert letter to ASCII value" style="rounded=0;whiteSpace=wrap;html=1;" parent="qPr7Wyt1u1uQ30_5zDNF-1" vertex="1">
          <mxGeometry x="640" y="340" width="120" height="60" as="geometry" />
        </mxCell>
        <mxCell id="qPr7Wyt1u1uQ30_5zDNF-19" value="Add the key value&lt;br&gt;to ASCII value" style="rounded=0;whiteSpace=wrap;html=1;" parent="qPr7Wyt1u1uQ30_5zDNF-1" vertex="1">
          <mxGeometry x="640" y="440" width="120" height="60" as="geometry" />
        </mxCell>
        <mxCell id="qPr7Wyt1u1uQ30_5zDNF-20" style="edgeStyle=none;rounded=0;orthogonalLoop=1;jettySize=auto;html=1;exitX=0.5;exitY=0;exitDx=0;exitDy=0;endArrow=none;endFill=0;" parent="qPr7Wyt1u1uQ30_5zDNF-1" source="qPr7Wyt1u1uQ30_5zDNF-21" edge="1">
          <mxGeometry relative="1" as="geometry">
            <mxPoint x="1020" y="300" as="targetPoint" />
          </mxGeometry>
        </mxCell>
        <mxCell id="qPr7Wyt1u1uQ30_5zDNF-21" value="Convert value to&lt;br&gt;a character" style="rounded=0;whiteSpace=wrap;html=1;" parent="qPr7Wyt1u1uQ30_5zDNF-1" vertex="1">
          <mxGeometry x="960" y="340" width="120" height="60" as="geometry" />
        </mxCell>
        <mxCell id="qPr7Wyt1u1uQ30_5zDNF-23" style="edgeStyle=none;rounded=0;orthogonalLoop=1;jettySize=auto;html=1;exitX=0.5;exitY=0;exitDx=0;exitDy=0;endArrow=none;endFill=0;entryX=0.5;entryY=1;entryDx=0;entryDy=0;" parent="qPr7Wyt1u1uQ30_5zDNF-1" source="qPr7Wyt1u1uQ30_5zDNF-24" target="qPr7Wyt1u1uQ30_5zDNF-21" edge="1">
          <mxGeometry relative="1" as="geometry">
            <mxPoint x="1020" y="410" as="targetPoint" />
          </mxGeometry>
        </mxCell>
        <mxCell id="qPr7Wyt1u1uQ30_5zDNF-24" value="Add character to cipher text" style="rounded=0;whiteSpace=wrap;html=1;" parent="qPr7Wyt1u1uQ30_5zDNF-1" vertex="1">
          <mxGeometry x="960" y="440" width="120" height="60" as="geometry" />
        </mxCell>
        <mxCell id="qPr7Wyt1u1uQ30_5zDNF-32" style="edgeStyle=orthogonalEdgeStyle;rounded=0;orthogonalLoop=1;jettySize=auto;html=1;exitX=0.5;exitY=0;exitDx=0;exitDy=0;entryX=0.5;entryY=1;entryDx=0;entryDy=0;endArrow=none;endFill=0;" parent="qPr7Wyt1u1uQ30_5zDNF-1" source="qPr7Wyt1u1uQ30_5zDNF-33" target="qPr7Wyt1u1uQ30_5zDNF-30" edge="1">
          <mxGeometry relative="1" as="geometry" />
        </mxCell>
        <mxCell id="qPr7Wyt1u1uQ30_5zDNF-33" value="Subtract 26 from&lt;br&gt;new value" style="rounded=0;whiteSpace=wrap;html=1;" parent="qPr7Wyt1u1uQ30_5zDNF-1" vertex="1">
          <mxGeometry x="800" y="440" width="120" height="60" as="geometry" />
        </mxCell>
        <mxCell id="qPr7Wyt1u1uQ30_5zDNF-38" value="" style="endArrow=none;html=1;" parent="qPr7Wyt1u1uQ30_5zDNF-1" edge="1">
          <mxGeometry width="50" height="50" relative="1" as="geometry">
            <mxPoint x="700" y="300" as="sourcePoint" />
            <mxPoint x="1020" y="300" as="targetPoint" />
          </mxGeometry>
        </mxCell>
        <mxCell id="gLv9NGvtsG2GSJEetIHr-4" style="edgeStyle=orthogonalEdgeStyle;rounded=0;orthogonalLoop=1;jettySize=auto;html=1;exitX=0.5;exitY=0;exitDx=0;exitDy=0;endArrow=none;endFill=0;" parent="qPr7Wyt1u1uQ30_5zDNF-1" source="gLv9NGvtsG2GSJEetIHr-3" edge="1">
          <mxGeometry relative="1" as="geometry">
            <mxPoint x="540" y="160" as="targetPoint" />
          </mxGeometry>
        </mxCell>
        <mxCell id="gLv9NGvtsG2GSJEetIHr-10" style="edgeStyle=orthogonalEdgeStyle;rounded=0;orthogonalLoop=1;jettySize=auto;html=1;exitX=0.5;exitY=1;exitDx=0;exitDy=0;entryX=0.5;entryY=0;entryDx=0;entryDy=0;endArrow=none;endFill=0;" parent="qPr7Wyt1u1uQ30_5zDNF-1" source="gLv9NGvtsG2GSJEetIHr-3" target="gLv9NGvtsG2GSJEetIHr-9" edge="1">
          <mxGeometry relative="1" as="geometry" />
        </mxCell>
        <mxCell id="gLv9NGvtsG2GSJEetIHr-3" value="Loop for each&lt;br&gt;letter in message" style="ellipse;whiteSpace=wrap;html=1;" parent="qPr7Wyt1u1uQ30_5zDNF-1" vertex="1">
          <mxGeometry x="480" y="200" width="120" height="60" as="geometry" />
        </mxCell>
        <mxCell id="gLv9NGvtsG2GSJEetIHr-39" style="edgeStyle=orthogonalEdgeStyle;rounded=0;orthogonalLoop=1;jettySize=auto;html=1;exitX=0.5;exitY=0;exitDx=0;exitDy=0;endArrow=none;endFill=0;" parent="qPr7Wyt1u1uQ30_5zDNF-1" source="gLv9NGvtsG2GSJEetIHr-12" edge="1">
          <mxGeometry relative="1" as="geometry">
            <mxPoint x="300" y="540" as="targetPoint" />
          </mxGeometry>
        </mxCell>
        <mxCell id="gLv9NGvtsG2GSJEetIHr-12" value="Convert letter to ASCII value" style="rounded=0;whiteSpace=wrap;html=1;" parent="qPr7Wyt1u1uQ30_5zDNF-1" vertex="1">
          <mxGeometry x="240" y="580" width="120" height="60" as="geometry" />
        </mxCell>
        <mxCell id="gLv9NGvtsG2GSJEetIHr-13" value="Add letter to&lt;br&gt;interim message&amp;nbsp;" style="rounded=0;whiteSpace=wrap;html=1;" parent="qPr7Wyt1u1uQ30_5zDNF-1" vertex="1">
          <mxGeometry x="320" y="440" width="120" height="60" as="geometry" />
        </mxCell>
        <mxCell id="gLv9NGvtsG2GSJEetIHr-14" style="rounded=0;orthogonalLoop=1;jettySize=auto;html=1;entryX=0.5;entryY=0;entryDx=0;entryDy=0;endArrow=none;endFill=0;edgeStyle=orthogonalEdgeStyle;" parent="qPr7Wyt1u1uQ30_5zDNF-1" target="gLv9NGvtsG2GSJEetIHr-13" edge="1">
          <mxGeometry relative="1" as="geometry">
            <mxPoint x="480" y="330" as="sourcePoint" />
          </mxGeometry>
        </mxCell>
        <mxCell id="gLv9NGvtsG2GSJEetIHr-15" value="Yes" style="text;html=1;strokeColor=none;fillColor=none;align=center;verticalAlign=middle;whiteSpace=wrap;rounded=0;" parent="qPr7Wyt1u1uQ30_5zDNF-1" vertex="1">
          <mxGeometry x="440" y="310" width="40" height="20" as="geometry" />
        </mxCell>
        <mxCell id="gLv9NGvtsG2GSJEetIHr-16" value="" style="group" parent="qPr7Wyt1u1uQ30_5zDNF-1" vertex="1" connectable="0">
          <mxGeometry x="480" y="440" width="120" height="60" as="geometry" />
        </mxCell>
        <mxCell id="gLv9NGvtsG2GSJEetIHr-17" value="" style="verticalLabelPosition=bottom;verticalAlign=top;html=1;shape=hexagon;perimeter=hexagonPerimeter2;arcSize=6;size=0.16;" parent="gLv9NGvtsG2GSJEetIHr-16" vertex="1">
          <mxGeometry width="120" height="60" as="geometry" />
        </mxCell>
        <mxCell id="gLv9NGvtsG2GSJEetIHr-18" value="Is letter a-z?" style="text;html=1;strokeColor=none;fillColor=none;align=center;verticalAlign=middle;whiteSpace=wrap;rounded=0;" parent="gLv9NGvtsG2GSJEetIHr-16" vertex="1">
          <mxGeometry x="24" width="72" height="60" as="geometry" />
        </mxCell>
        <mxCell id="gLv9NGvtsG2GSJEetIHr-20" style="edgeStyle=none;rounded=0;orthogonalLoop=1;jettySize=auto;html=1;exitX=0.5;exitY=1;exitDx=0;exitDy=0;entryX=0.5;entryY=0;entryDx=0;entryDy=0;endArrow=none;endFill=0;" parent="qPr7Wyt1u1uQ30_5zDNF-1" source="gLv9NGvtsG2GSJEetIHr-9" target="gLv9NGvtsG2GSJEetIHr-18" edge="1">
          <mxGeometry relative="1" as="geometry" />
        </mxCell>
        <mxCell id="gLv9NGvtsG2GSJEetIHr-33" style="edgeStyle=orthogonalEdgeStyle;rounded=0;orthogonalLoop=1;jettySize=auto;html=1;exitX=0.5;exitY=0;exitDx=0;exitDy=0;endArrow=none;endFill=0;" parent="qPr7Wyt1u1uQ30_5zDNF-1" source="gLv9NGvtsG2GSJEetIHr-21" edge="1">
          <mxGeometry relative="1" as="geometry">
            <mxPoint x="460" y="540" as="targetPoint" />
          </mxGeometry>
        </mxCell>
        <mxCell id="gLv9NGvtsG2GSJEetIHr-21" value="Subtract 32 from&lt;br&gt;ASCII value" style="rounded=0;whiteSpace=wrap;html=1;" parent="qPr7Wyt1u1uQ30_5zDNF-1" vertex="1">
          <mxGeometry x="400" y="580" width="120" height="60" as="geometry" />
        </mxCell>
        <mxCell id="gLv9NGvtsG2GSJEetIHr-25" value="Yes" style="text;html=1;strokeColor=none;fillColor=none;align=center;verticalAlign=middle;whiteSpace=wrap;rounded=0;" parent="qPr7Wyt1u1uQ30_5zDNF-1" vertex="1">
          <mxGeometry x="540" y="500" width="40" height="20" as="geometry" />
        </mxCell>
        <mxCell id="gLv9NGvtsG2GSJEetIHr-40" style="edgeStyle=orthogonalEdgeStyle;rounded=0;orthogonalLoop=1;jettySize=auto;html=1;exitX=0.5;exitY=0;exitDx=0;exitDy=0;endArrow=none;endFill=0;" parent="qPr7Wyt1u1uQ30_5zDNF-1" source="gLv9NGvtsG2GSJEetIHr-26" edge="1">
          <mxGeometry relative="1" as="geometry">
            <mxPoint x="620" y="540" as="targetPoint" />
          </mxGeometry>
        </mxCell>
        <mxCell id="gLv9NGvtsG2GSJEetIHr-26" value="Convert value to&lt;br&gt;a character" style="rounded=0;whiteSpace=wrap;html=1;" parent="qPr7Wyt1u1uQ30_5zDNF-1" vertex="1">
          <mxGeometry x="560" y="580" width="120" height="60" as="geometry" />
        </mxCell>
        <mxCell id="gLv9NGvtsG2GSJEetIHr-34" style="edgeStyle=orthogonalEdgeStyle;rounded=0;orthogonalLoop=1;jettySize=auto;html=1;exitX=0.5;exitY=0;exitDx=0;exitDy=0;endArrow=none;endFill=0;" parent="qPr7Wyt1u1uQ30_5zDNF-1" source="gLv9NGvtsG2GSJEetIHr-27" edge="1">
          <mxGeometry relative="1" as="geometry">
            <mxPoint x="780" y="540" as="targetPoint" />
          </mxGeometry>
        </mxCell>
        <mxCell id="gLv9NGvtsG2GSJEetIHr-27" value="Add character to interim text" style="rounded=0;whiteSpace=wrap;html=1;" parent="qPr7Wyt1u1uQ30_5zDNF-1" vertex="1">
          <mxGeometry x="720" y="580" width="120" height="60" as="geometry" />
        </mxCell>
        <mxCell id="qPr7Wyt1u1uQ30_5zDNF-31" value="Yes" style="text;html=1;strokeColor=none;fillColor=none;align=center;verticalAlign=middle;whiteSpace=wrap;rounded=0;" parent="qPr7Wyt1u1uQ30_5zDNF-1" vertex="1">
          <mxGeometry x="860.0042857142857" y="400" width="34.28571428571429" height="20" as="geometry" />
        </mxCell>
        <mxCell id="gLv9NGvtsG2GSJEetIHr-31" value="" style="group" parent="qPr7Wyt1u1uQ30_5zDNF-1" vertex="1" connectable="0">
          <mxGeometry x="800" y="340" width="120" height="60" as="geometry" />
        </mxCell>
        <mxCell id="qPr7Wyt1u1uQ30_5zDNF-29" value="" style="verticalLabelPosition=bottom;verticalAlign=top;html=1;shape=hexagon;perimeter=hexagonPerimeter2;arcSize=6;size=0.16;" parent="gLv9NGvtsG2GSJEetIHr-31" vertex="1">
          <mxGeometry width="120" height="60" as="geometry" />
        </mxCell>
        <mxCell id="qPr7Wyt1u1uQ30_5zDNF-30" value="Is new value greater than 90?" style="text;html=1;strokeColor=none;fillColor=none;align=center;verticalAlign=middle;whiteSpace=wrap;rounded=0;" parent="gLv9NGvtsG2GSJEetIHr-31" vertex="1">
          <mxGeometry x="20.71999999999995" width="78.57" height="60" as="geometry" />
        </mxCell>
        <mxCell id="gLv9NGvtsG2GSJEetIHr-32" style="edgeStyle=orthogonalEdgeStyle;rounded=0;orthogonalLoop=1;jettySize=auto;html=1;exitX=0.5;exitY=0;exitDx=0;exitDy=0;endArrow=none;endFill=0;" parent="qPr7Wyt1u1uQ30_5zDNF-1" source="qPr7Wyt1u1uQ30_5zDNF-29" edge="1">
          <mxGeometry relative="1" as="geometry">
            <mxPoint x="860.1428571428571" y="300" as="targetPoint" />
          </mxGeometry>
        </mxCell>
        <mxCell id="gLv9NGvtsG2GSJEetIHr-36" value="" style="endArrow=none;html=1;rounded=0;" parent="qPr7Wyt1u1uQ30_5zDNF-1" edge="1">
          <mxGeometry width="50" height="50" relative="1" as="geometry">
            <mxPoint x="300" y="540" as="sourcePoint" />
            <mxPoint x="780" y="540" as="targetPoint" />
          </mxGeometry>
        </mxCell>
        <mxCell id="gLv9NGvtsG2GSJEetIHr-37" value="No" style="text;html=1;strokeColor=none;fillColor=none;align=center;verticalAlign=middle;whiteSpace=wrap;rounded=0;" parent="qPr7Wyt1u1uQ30_5zDNF-1" vertex="1">
          <mxGeometry x="540" y="360" width="40" height="20" as="geometry" />
        </mxCell>
        <mxCell id="gLv9NGvtsG2GSJEetIHr-38" style="edgeStyle=orthogonalEdgeStyle;rounded=0;orthogonalLoop=1;jettySize=auto;html=1;exitX=0.5;exitY=1;exitDx=0;exitDy=0;endArrow=none;endFill=0;entryX=0.5;entryY=0;entryDx=0;entryDy=0;" parent="qPr7Wyt1u1uQ30_5zDNF-1" target="qPr7Wyt1u1uQ30_5zDNF-17" edge="1">
          <mxGeometry relative="1" as="geometry">
            <mxPoint x="700" y="300" as="targetPoint" />
            <mxPoint x="699.9999999999998" y="260" as="sourcePoint" />
          </mxGeometry>
        </mxCell>
        <mxCell id="gLv9NGvtsG2GSJEetIHr-41" style="edgeStyle=orthogonalEdgeStyle;rounded=0;orthogonalLoop=1;jettySize=auto;html=1;exitX=0.5;exitY=1;exitDx=0;exitDy=0;endArrow=none;endFill=0;" parent="qPr7Wyt1u1uQ30_5zDNF-1" source="gLv9NGvtsG2GSJEetIHr-17" edge="1">
          <mxGeometry relative="1" as="geometry">
            <mxPoint x="540" y="540" as="targetPoint" />
          </mxGeometry>
        </mxCell>
        <mxCell id="F9uNCHQIpigjKWtM84Tg-0" value="" style="group" parent="qPr7Wyt1u1uQ30_5zDNF-1" vertex="1" connectable="0">
          <mxGeometry x="480" y="300" width="120" height="60" as="geometry" />
        </mxCell>
        <mxCell id="gLv9NGvtsG2GSJEetIHr-8" value="" style="verticalLabelPosition=bottom;verticalAlign=top;html=1;shape=hexagon;perimeter=hexagonPerimeter2;arcSize=6;size=0.16;" parent="F9uNCHQIpigjKWtM84Tg-0" vertex="1">
          <mxGeometry width="120" height="60" as="geometry" />
        </mxCell>
        <mxCell id="gLv9NGvtsG2GSJEetIHr-9" value="Is letter A-Z?" style="text;html=1;strokeColor=none;fillColor=none;align=center;verticalAlign=middle;whiteSpace=wrap;rounded=0;" parent="F9uNCHQIpigjKWtM84Tg-0" vertex="1">
          <mxGeometry x="24" y="10" width="72" height="40" as="geometry" />
        </mxCell>
      </root>
    </mxGraphModel>
  </diagram>
  <diagram id="uwTM36lVaLbPrCuM3WQW" name="Page-2">
    <mxGraphModel dx="782" dy="539" grid="1" gridSize="10" guides="1" tooltips="1" connect="1" arrows="1" fold="1" page="1" pageScale="1" pageWidth="1169" pageHeight="827" math="0" shadow="0">
      <root>
        <mxCell id="0" />
        <mxCell id="1" parent="0" />
        <mxCell id="SsftGCZtgDBo6R44JhK9-15" style="edgeStyle=orthogonalEdgeStyle;rounded=0;orthogonalLoop=1;jettySize=auto;html=1;exitX=0.5;exitY=1;exitDx=0;exitDy=0;endArrow=none;endFill=0;" parent="1" source="SsftGCZtgDBo6R44JhK9-2" edge="1">
          <mxGeometry relative="1" as="geometry">
            <mxPoint x="420" y="160" as="targetPoint" />
          </mxGeometry>
        </mxCell>
        <mxCell id="SsftGCZtgDBo6R44JhK9-2" value="Caesar Cipher - Encode" style="rounded=0;whiteSpace=wrap;html=1;" parent="1" vertex="1">
          <mxGeometry x="360" y="80" width="120" height="60" as="geometry" />
        </mxCell>
        <mxCell id="ZRL3iSHB8gEITymEOPoa-4" style="edgeStyle=orthogonalEdgeStyle;rounded=0;orthogonalLoop=1;jettySize=auto;html=1;exitX=0.5;exitY=0;exitDx=0;exitDy=0;endArrow=none;endFill=0;" parent="1" source="SsftGCZtgDBo6R44JhK9-3" edge="1">
          <mxGeometry relative="1" as="geometry">
            <mxPoint x="180" y="160" as="targetPoint" />
          </mxGeometry>
        </mxCell>
        <mxCell id="ZRL3iSHB8gEITymEOPoa-5" style="rounded=0;orthogonalLoop=1;jettySize=auto;html=1;exitX=0.75;exitY=1;exitDx=0;exitDy=0;endArrow=block;endFill=1;" parent="1" source="SsftGCZtgDBo6R44JhK9-3" edge="1">
          <mxGeometry relative="1" as="geometry">
            <mxPoint x="210" y="320" as="targetPoint" />
          </mxGeometry>
        </mxCell>
        <mxCell id="SsftGCZtgDBo6R44JhK9-3" value="Get plain text message" style="rounded=0;whiteSpace=wrap;html=1;" parent="1" vertex="1">
          <mxGeometry x="120" y="200" width="120" height="60" as="geometry" />
        </mxCell>
        <mxCell id="SsftGCZtgDBo6R44JhK9-18" style="edgeStyle=orthogonalEdgeStyle;rounded=0;orthogonalLoop=1;jettySize=auto;html=1;exitX=0.5;exitY=0;exitDx=0;exitDy=0;endArrow=none;endFill=0;" parent="1" source="SsftGCZtgDBo6R44JhK9-6" edge="1">
          <mxGeometry relative="1" as="geometry">
            <mxPoint x="340" y="160" as="targetPoint" />
          </mxGeometry>
        </mxCell>
        <mxCell id="ZRL3iSHB8gEITymEOPoa-6" style="edgeStyle=none;rounded=0;orthogonalLoop=1;jettySize=auto;html=1;exitX=0.75;exitY=1;exitDx=0;exitDy=0;endArrow=block;endFill=1;fillColor=#e1d5e7;" parent="1" source="SsftGCZtgDBo6R44JhK9-6" edge="1">
          <mxGeometry relative="1" as="geometry">
            <mxPoint x="370" y="320" as="targetPoint" />
          </mxGeometry>
        </mxCell>
        <mxCell id="SsftGCZtgDBo6R44JhK9-6" value="Get key value" style="rounded=0;whiteSpace=wrap;html=1;" parent="1" vertex="1">
          <mxGeometry x="280" y="200" width="120" height="60" as="geometry" />
        </mxCell>
        <mxCell id="SsftGCZtgDBo6R44JhK9-17" value="" style="endArrow=none;html=1;" parent="1" edge="1">
          <mxGeometry width="50" height="50" relative="1" as="geometry">
            <mxPoint x="180" y="160" as="sourcePoint" />
            <mxPoint x="660" y="160" as="targetPoint" />
          </mxGeometry>
        </mxCell>
        <mxCell id="ZRL3iSHB8gEITymEOPoa-3" style="edgeStyle=orthogonalEdgeStyle;rounded=0;orthogonalLoop=1;jettySize=auto;html=1;exitX=0.5;exitY=0;exitDx=0;exitDy=0;endArrow=none;endFill=0;" parent="1" source="SsftGCZtgDBo6R44JhK9-26" edge="1">
          <mxGeometry relative="1" as="geometry">
            <mxPoint x="660" y="160" as="targetPoint" />
          </mxGeometry>
        </mxCell>
        <mxCell id="ZRL3iSHB8gEITymEOPoa-9" style="edgeStyle=none;rounded=0;orthogonalLoop=1;jettySize=auto;html=1;exitX=0.25;exitY=1;exitDx=0;exitDy=0;endArrow=none;endFill=0;startArrow=block;startFill=1;" parent="1" source="SsftGCZtgDBo6R44JhK9-26" edge="1">
          <mxGeometry relative="1" as="geometry">
            <mxPoint x="630" y="360" as="targetPoint" />
          </mxGeometry>
        </mxCell>
        <mxCell id="SsftGCZtgDBo6R44JhK9-26" value="Display cipher text" style="rounded=0;whiteSpace=wrap;html=1;" parent="1" vertex="1">
          <mxGeometry x="600" y="200" width="120" height="60" as="geometry" />
        </mxCell>
        <mxCell id="ZRL3iSHB8gEITymEOPoa-2" style="edgeStyle=orthogonalEdgeStyle;rounded=0;orthogonalLoop=1;jettySize=auto;html=1;exitX=0.5;exitY=0;exitDx=0;exitDy=0;endArrow=none;endFill=0;" parent="1" source="ZRL3iSHB8gEITymEOPoa-1" edge="1">
          <mxGeometry relative="1" as="geometry">
            <mxPoint x="500" y="160" as="targetPoint" />
          </mxGeometry>
        </mxCell>
        <mxCell id="ZRL3iSHB8gEITymEOPoa-7" style="edgeStyle=none;rounded=0;orthogonalLoop=1;jettySize=auto;html=1;exitX=0.25;exitY=1;exitDx=0;exitDy=0;endArrow=none;endFill=0;startArrow=block;startFill=1;" parent="1" source="ZRL3iSHB8gEITymEOPoa-1" edge="1">
          <mxGeometry relative="1" as="geometry">
            <mxPoint x="470" y="360" as="targetPoint" />
          </mxGeometry>
        </mxCell>
        <mxCell id="ZRL3iSHB8gEITymEOPoa-8" style="edgeStyle=none;rounded=0;orthogonalLoop=1;jettySize=auto;html=1;exitX=0.75;exitY=1;exitDx=0;exitDy=0;endArrow=block;endFill=1;" parent="1" source="ZRL3iSHB8gEITymEOPoa-1" edge="1">
          <mxGeometry relative="1" as="geometry">
            <mxPoint x="530" y="320" as="targetPoint" />
          </mxGeometry>
        </mxCell>
        <mxCell id="ZRL3iSHB8gEITymEOPoa-1" value="Encrypt plain text message" style="rounded=0;whiteSpace=wrap;html=1;" parent="1" vertex="1">
          <mxGeometry x="440" y="200" width="120" height="60" as="geometry" />
        </mxCell>
        <mxCell id="ZRL3iSHB8gEITymEOPoa-10" value="plainText" style="text;html=1;strokeColor=none;fillColor=none;align=center;verticalAlign=middle;whiteSpace=wrap;rounded=0;" parent="1" vertex="1">
          <mxGeometry x="190" y="320" width="40" height="20" as="geometry" />
        </mxCell>
        <mxCell id="ZRL3iSHB8gEITymEOPoa-11" value="key" style="text;html=1;strokeColor=none;fillColor=none;align=center;verticalAlign=middle;whiteSpace=wrap;rounded=0;" parent="1" vertex="1">
          <mxGeometry x="350" y="320" width="40" height="20" as="geometry" />
        </mxCell>
        <mxCell id="ZRL3iSHB8gEITymEOPoa-12" value="cipherText" style="text;html=1;strokeColor=none;fillColor=none;align=center;verticalAlign=middle;whiteSpace=wrap;rounded=0;" parent="1" vertex="1">
          <mxGeometry x="510" y="320" width="40" height="20" as="geometry" />
        </mxCell>
        <mxCell id="ZRL3iSHB8gEITymEOPoa-13" value="cipherText" style="text;html=1;strokeColor=none;fillColor=none;align=center;verticalAlign=middle;whiteSpace=wrap;rounded=0;" parent="1" vertex="1">
          <mxGeometry x="610" y="360" width="40" height="20" as="geometry" />
        </mxCell>
        <mxCell id="ZRL3iSHB8gEITymEOPoa-15" value="plainText, key" style="text;html=1;strokeColor=none;fillColor=none;align=center;verticalAlign=middle;whiteSpace=wrap;rounded=0;" parent="1" vertex="1">
          <mxGeometry x="430" y="360" width="80" height="20" as="geometry" />
        </mxCell>
      </root>
    </mxGraphModel>
  </diagram>
  <diagram id="F0ArDQqnMdtwwOhi-oQp" name="Page-1">
    <mxGraphModel dx="782" dy="539" grid="1" gridSize="10" guides="1" tooltips="1" connect="1" arrows="1" fold="1" page="1" pageScale="1" pageWidth="1169" pageHeight="827" math="0" shadow="0">
      <root>
        <mxCell id="0" />
        <mxCell id="1" parent="0" />
        <mxCell id="RGvuDBfXI2XmU55CSNJE-20" style="edgeStyle=none;rounded=0;orthogonalLoop=1;jettySize=auto;html=1;exitX=0.5;exitY=1;exitDx=0;exitDy=0;endArrow=none;endFill=0;" parent="1" source="SsftGCZtgDBo6R44JhK9-2" edge="1">
          <mxGeometry relative="1" as="geometry">
            <mxPoint x="540" y="160" as="targetPoint" />
          </mxGeometry>
        </mxCell>
        <mxCell id="SsftGCZtgDBo6R44JhK9-2" value="Caesar Cipher - Encode" style="rounded=0;whiteSpace=wrap;html=1;" parent="1" vertex="1">
          <mxGeometry x="480" y="80" width="120" height="60" as="geometry" />
        </mxCell>
        <mxCell id="SsftGCZtgDBo6R44JhK9-3" value="Get plain text message" style="rounded=0;whiteSpace=wrap;html=1;" parent="1" vertex="1">
          <mxGeometry x="160" y="200" width="120" height="60" as="geometry" />
        </mxCell>
        <mxCell id="SsftGCZtgDBo6R44JhK9-8" style="edgeStyle=orthogonalEdgeStyle;rounded=0;orthogonalLoop=1;jettySize=auto;html=1;exitX=0.5;exitY=1;exitDx=0;exitDy=0;entryX=0.5;entryY=0;entryDx=0;entryDy=0;endArrow=none;endFill=0;" parent="1" source="SsftGCZtgDBo6R44JhK9-6" target="SsftGCZtgDBo6R44JhK9-7" edge="1">
          <mxGeometry relative="1" as="geometry" />
        </mxCell>
        <mxCell id="SsftGCZtgDBo6R44JhK9-12" style="edgeStyle=orthogonalEdgeStyle;rounded=0;orthogonalLoop=1;jettySize=auto;html=1;exitX=0;exitY=0.5;exitDx=0;exitDy=0;entryX=0;entryY=0.5;entryDx=0;entryDy=0;endArrow=none;endFill=0;" parent="1" source="SsftGCZtgDBo6R44JhK9-6" target="SsftGCZtgDBo6R44JhK9-7" edge="1">
          <mxGeometry relative="1" as="geometry" />
        </mxCell>
        <mxCell id="SsftGCZtgDBo6R44JhK9-6" value="Get key value" style="rounded=0;whiteSpace=wrap;html=1;" parent="1" vertex="1">
          <mxGeometry x="320" y="200" width="120" height="60" as="geometry" />
        </mxCell>
        <mxCell id="SsftGCZtgDBo6R44JhK9-13" value="" style="group" parent="1" vertex="1" connectable="0">
          <mxGeometry x="320" y="300" width="120" height="60" as="geometry" />
        </mxCell>
        <mxCell id="SsftGCZtgDBo6R44JhK9-7" value="" style="verticalLabelPosition=bottom;verticalAlign=top;html=1;shape=hexagon;perimeter=hexagonPerimeter2;arcSize=6;size=0.16;" parent="SsftGCZtgDBo6R44JhK9-13" vertex="1">
          <mxGeometry width="120" height="60" as="geometry" />
        </mxCell>
        <mxCell id="SsftGCZtgDBo6R44JhK9-11" value="Is key between 1 and 25?" style="text;html=1;strokeColor=none;fillColor=none;align=center;verticalAlign=middle;whiteSpace=wrap;rounded=0;" parent="SsftGCZtgDBo6R44JhK9-13" vertex="1">
          <mxGeometry x="36" y="20" width="48" height="20" as="geometry" />
        </mxCell>
        <mxCell id="SsftGCZtgDBo6R44JhK9-14" value="No" style="text;html=1;strokeColor=none;fillColor=none;align=center;verticalAlign=middle;whiteSpace=wrap;rounded=0;" parent="1" vertex="1">
          <mxGeometry x="290" y="310" width="40" height="20" as="geometry" />
        </mxCell>
        <mxCell id="SsftGCZtgDBo6R44JhK9-17" value="" style="endArrow=none;html=1;" parent="1" edge="1">
          <mxGeometry width="50" height="50" relative="1" as="geometry">
            <mxPoint x="220" y="160" as="sourcePoint" />
            <mxPoint x="860" y="160" as="targetPoint" />
          </mxGeometry>
        </mxCell>
        <mxCell id="iDanF1prpeiqrMvS_iIp-4" style="edgeStyle=orthogonalEdgeStyle;rounded=0;orthogonalLoop=1;jettySize=auto;html=1;exitX=0.5;exitY=1;exitDx=0;exitDy=0;endArrow=none;endFill=0;entryX=0.5;entryY=0;entryDx=0;entryDy=0;" parent="1" source="SsftGCZtgDBo6R44JhK9-19" target="iDanF1prpeiqrMvS_iIp-2" edge="1">
          <mxGeometry relative="1" as="geometry">
            <mxPoint x="660" y="210" as="targetPoint" />
          </mxGeometry>
        </mxCell>
        <mxCell id="m8jWBQZusiVg4C8l09is-1" style="edgeStyle=orthogonalEdgeStyle;rounded=0;orthogonalLoop=1;jettySize=auto;html=1;exitX=0.5;exitY=0;exitDx=0;exitDy=0;endArrow=none;endFill=0;" parent="1" source="SsftGCZtgDBo6R44JhK9-19" edge="1">
          <mxGeometry relative="1" as="geometry">
            <mxPoint x="700" y="160" as="targetPoint" />
          </mxGeometry>
        </mxCell>
        <mxCell id="SsftGCZtgDBo6R44JhK9-19" value="Loop for each letter&lt;br&gt;in the message" style="ellipse;whiteSpace=wrap;html=1;" parent="1" vertex="1">
          <mxGeometry x="640" y="200" width="120" height="60" as="geometry" />
        </mxCell>
        <mxCell id="RGvuDBfXI2XmU55CSNJE-13" style="edgeStyle=none;rounded=0;orthogonalLoop=1;jettySize=auto;html=1;exitX=0.5;exitY=0;exitDx=0;exitDy=0;endArrow=none;endFill=0;" parent="1" source="SsftGCZtgDBo6R44JhK9-21" edge="1">
          <mxGeometry relative="1" as="geometry">
            <mxPoint x="380" y="390" as="targetPoint" />
          </mxGeometry>
        </mxCell>
        <mxCell id="SsftGCZtgDBo6R44JhK9-21" value="Convert letter to ASCII value" style="rounded=0;whiteSpace=wrap;html=1;" parent="1" vertex="1">
          <mxGeometry x="320" y="420" width="120" height="60" as="geometry" />
        </mxCell>
        <mxCell id="RGvuDBfXI2XmU55CSNJE-15" style="edgeStyle=none;rounded=0;orthogonalLoop=1;jettySize=auto;html=1;exitX=0.5;exitY=0;exitDx=0;exitDy=0;endArrow=none;endFill=0;" parent="1" source="SsftGCZtgDBo6R44JhK9-24" edge="1">
          <mxGeometry relative="1" as="geometry">
            <mxPoint x="540" y="390" as="targetPoint" />
          </mxGeometry>
        </mxCell>
        <mxCell id="SsftGCZtgDBo6R44JhK9-24" value="Add the key value to the ASCII value" style="rounded=0;whiteSpace=wrap;html=1;" parent="1" vertex="1">
          <mxGeometry x="480" y="420" width="120" height="60" as="geometry" />
        </mxCell>
        <mxCell id="RGvuDBfXI2XmU55CSNJE-16" style="edgeStyle=none;rounded=0;orthogonalLoop=1;jettySize=auto;html=1;exitX=0.5;exitY=0;exitDx=0;exitDy=0;endArrow=none;endFill=0;" parent="1" source="SsftGCZtgDBo6R44JhK9-25" edge="1">
          <mxGeometry relative="1" as="geometry">
            <mxPoint x="860" y="390" as="targetPoint" />
          </mxGeometry>
        </mxCell>
        <mxCell id="SsftGCZtgDBo6R44JhK9-25" value="Convert new value to a character" style="rounded=0;whiteSpace=wrap;html=1;" parent="1" vertex="1">
          <mxGeometry x="800" y="420" width="120" height="60" as="geometry" />
        </mxCell>
        <mxCell id="SsftGCZtgDBo6R44JhK9-26" value="Display cipher text" style="rounded=0;whiteSpace=wrap;html=1;" parent="1" vertex="1">
          <mxGeometry x="800" y="200" width="120" height="60" as="geometry" />
        </mxCell>
        <mxCell id="RGvuDBfXI2XmU55CSNJE-14" style="edgeStyle=none;rounded=0;orthogonalLoop=1;jettySize=auto;html=1;exitX=0.5;exitY=0;exitDx=0;exitDy=0;endArrow=none;endFill=0;entryX=0.5;entryY=1;entryDx=0;entryDy=0;" parent="1" source="SsftGCZtgDBo6R44JhK9-39" target="SsftGCZtgDBo6R44JhK9-25" edge="1">
          <mxGeometry relative="1" as="geometry">
            <mxPoint x="860" y="490" as="targetPoint" />
          </mxGeometry>
        </mxCell>
        <mxCell id="SsftGCZtgDBo6R44JhK9-39" value="Add character to cipher text" style="rounded=0;whiteSpace=wrap;html=1;" parent="1" vertex="1">
          <mxGeometry x="800" y="520" width="120" height="60" as="geometry" />
        </mxCell>
        <mxCell id="iDanF1prpeiqrMvS_iIp-1" value="" style="group" parent="1" vertex="1" connectable="0">
          <mxGeometry x="640" y="180" width="120" height="180" as="geometry" />
        </mxCell>
        <mxCell id="iDanF1prpeiqrMvS_iIp-2" value="" style="verticalLabelPosition=bottom;verticalAlign=top;html=1;shape=hexagon;perimeter=hexagonPerimeter2;arcSize=6;size=0.16;" parent="iDanF1prpeiqrMvS_iIp-1" vertex="1">
          <mxGeometry y="120" width="120" height="60" as="geometry" />
        </mxCell>
        <mxCell id="iDanF1prpeiqrMvS_iIp-3" value="Is letter between A and Z?" style="text;html=1;strokeColor=none;fillColor=none;align=center;verticalAlign=middle;whiteSpace=wrap;rounded=0;" parent="iDanF1prpeiqrMvS_iIp-1" vertex="1">
          <mxGeometry x="24" y="140" width="72" height="20" as="geometry" />
        </mxCell>
        <mxCell id="iDanF1prpeiqrMvS_iIp-14" value="" style="group" parent="1" vertex="1" connectable="0">
          <mxGeometry x="640" y="420" width="120" height="80" as="geometry" />
        </mxCell>
        <mxCell id="iDanF1prpeiqrMvS_iIp-15" value="" style="verticalLabelPosition=bottom;verticalAlign=top;html=1;shape=hexagon;perimeter=hexagonPerimeter2;arcSize=6;size=0.16;" parent="iDanF1prpeiqrMvS_iIp-14" vertex="1">
          <mxGeometry width="120" height="60" as="geometry" />
        </mxCell>
        <mxCell id="iDanF1prpeiqrMvS_iIp-16" value="Is the new value greater than 90?" style="text;html=1;strokeColor=none;fillColor=none;align=center;verticalAlign=middle;whiteSpace=wrap;rounded=0;" parent="iDanF1prpeiqrMvS_iIp-14" vertex="1">
          <mxGeometry x="21.42857142857143" width="77.14285714285714" height="60" as="geometry" />
        </mxCell>
        <mxCell id="iDanF1prpeiqrMvS_iIp-17" value="Yes" style="text;html=1;strokeColor=none;fillColor=none;align=center;verticalAlign=middle;whiteSpace=wrap;rounded=0;" parent="iDanF1prpeiqrMvS_iIp-14" vertex="1">
          <mxGeometry x="25.714285714285715" y="60" width="34.28571428571429" height="20" as="geometry" />
        </mxCell>
        <mxCell id="iDanF1prpeiqrMvS_iIp-21" style="edgeStyle=orthogonalEdgeStyle;rounded=0;orthogonalLoop=1;jettySize=auto;html=1;exitX=0.5;exitY=0;exitDx=0;exitDy=0;entryX=0.5;entryY=1;entryDx=0;entryDy=0;endArrow=none;endFill=0;" parent="1" source="iDanF1prpeiqrMvS_iIp-18" target="iDanF1prpeiqrMvS_iIp-16" edge="1">
          <mxGeometry relative="1" as="geometry" />
        </mxCell>
        <mxCell id="iDanF1prpeiqrMvS_iIp-18" value="Subtract 26 from the new value" style="rounded=0;whiteSpace=wrap;html=1;" parent="1" vertex="1">
          <mxGeometry x="640" y="520" width="120" height="60" as="geometry" />
        </mxCell>
        <mxCell id="RGvuDBfXI2XmU55CSNJE-3" style="edgeStyle=orthogonalEdgeStyle;rounded=0;orthogonalLoop=1;jettySize=auto;html=1;exitX=0.5;exitY=0;exitDx=0;exitDy=0;endArrow=none;endFill=0;" parent="1" source="SsftGCZtgDBo6R44JhK9-4" edge="1">
          <mxGeometry relative="1" as="geometry">
            <mxPoint x="540" y="160" as="targetPoint" />
          </mxGeometry>
        </mxCell>
        <mxCell id="SsftGCZtgDBo6R44JhK9-4" value="Convert message to upper case" style="rounded=0;whiteSpace=wrap;html=1;" parent="1" vertex="1">
          <mxGeometry x="480" y="200" width="120" height="60" as="geometry" />
        </mxCell>
        <mxCell id="iDanF1prpeiqrMvS_iIp-22" value="Yes" style="text;html=1;strokeColor=none;fillColor=none;align=center;verticalAlign=middle;whiteSpace=wrap;rounded=0;" parent="1" vertex="1">
          <mxGeometry x="660" y="360" width="40" height="20" as="geometry" />
        </mxCell>
        <mxCell id="RGvuDBfXI2XmU55CSNJE-11" style="edgeStyle=orthogonalEdgeStyle;rounded=0;orthogonalLoop=1;jettySize=auto;html=1;exitX=0.5;exitY=1;exitDx=0;exitDy=0;entryX=0.5;entryY=0;entryDx=0;entryDy=0;endArrow=none;endFill=0;" parent="1" source="iDanF1prpeiqrMvS_iIp-2" target="iDanF1prpeiqrMvS_iIp-16" edge="1">
          <mxGeometry relative="1" as="geometry" />
        </mxCell>
        <mxCell id="RGvuDBfXI2XmU55CSNJE-12" value="" style="endArrow=none;html=1;" parent="1" edge="1">
          <mxGeometry width="50" height="50" relative="1" as="geometry">
            <mxPoint x="380" y="391" as="sourcePoint" />
            <mxPoint x="860" y="390" as="targetPoint" />
          </mxGeometry>
        </mxCell>
        <mxCell id="RGvuDBfXI2XmU55CSNJE-17" value="" style="endArrow=none;html=1;exitX=0.5;exitY=0;exitDx=0;exitDy=0;" parent="1" source="SsftGCZtgDBo6R44JhK9-6" edge="1">
          <mxGeometry width="50" height="50" relative="1" as="geometry">
            <mxPoint x="440" y="360" as="sourcePoint" />
            <mxPoint x="380" y="160" as="targetPoint" />
          </mxGeometry>
        </mxCell>
        <mxCell id="RGvuDBfXI2XmU55CSNJE-18" value="" style="endArrow=none;html=1;exitX=0.5;exitY=0;exitDx=0;exitDy=0;" parent="1" source="SsftGCZtgDBo6R44JhK9-3" edge="1">
          <mxGeometry width="50" height="50" relative="1" as="geometry">
            <mxPoint x="150" y="430" as="sourcePoint" />
            <mxPoint x="220" y="160" as="targetPoint" />
          </mxGeometry>
        </mxCell>
        <mxCell id="RGvuDBfXI2XmU55CSNJE-19" value="" style="endArrow=none;html=1;" parent="1" source="SsftGCZtgDBo6R44JhK9-26" edge="1">
          <mxGeometry width="50" height="50" relative="1" as="geometry">
            <mxPoint x="600" y="360" as="sourcePoint" />
            <mxPoint x="860" y="160" as="targetPoint" />
          </mxGeometry>
        </mxCell>
      </root>
    </mxGraphModel>
  </diagram>
  <diagram id="4mQql27QQEsrqSH7kSeR" name="sd">
    <mxGraphModel dx="882" dy="677" grid="1" gridSize="10" guides="1" tooltips="1" connect="1" arrows="1" fold="1" page="1" pageScale="1" pageWidth="1169" pageHeight="827" math="0" shadow="0">
      <root>
        <mxCell id="0" />
        <mxCell id="1" parent="0" />
        <mxCell id="PnTi4dvMfxkBQY3S4DTA-23" style="edgeStyle=orthogonalEdgeStyle;shape=connector;rounded=0;orthogonalLoop=1;jettySize=auto;html=1;labelBackgroundColor=default;strokeColor=default;fontFamily=Helvetica;fontSize=11;fontColor=default;startArrow=none;startFill=0;endArrow=none;endFill=0;" parent="1" source="l5bLHaL3Zh3C_KpgQLBv-1" edge="1">
          <mxGeometry relative="1" as="geometry">
            <mxPoint x="440" y="160" as="targetPoint" />
          </mxGeometry>
        </mxCell>
        <mxCell id="l5bLHaL3Zh3C_KpgQLBv-1" value="Encode" style="rounded=0;whiteSpace=wrap;html=1;" parent="1" vertex="1">
          <mxGeometry x="380" y="80" width="120" height="60" as="geometry" />
        </mxCell>
        <mxCell id="PnTi4dvMfxkBQY3S4DTA-18" style="edgeStyle=orthogonalEdgeStyle;shape=connector;rounded=0;orthogonalLoop=1;jettySize=auto;html=1;exitX=0.5;exitY=0;exitDx=0;exitDy=0;labelBackgroundColor=default;strokeColor=default;fontFamily=Helvetica;fontSize=11;fontColor=default;startArrow=none;startFill=0;endArrow=none;endFill=0;" parent="1" source="nme9xcFP0Zu9OwlZp9ow-1" edge="1">
          <mxGeometry relative="1" as="geometry">
            <mxPoint x="220" y="160" as="targetPoint" />
          </mxGeometry>
        </mxCell>
        <mxCell id="nme9xcFP0Zu9OwlZp9ow-1" value="Initialise local variables" style="rounded=0;whiteSpace=wrap;html=1;" parent="1" vertex="1">
          <mxGeometry x="160" y="200" width="120" height="60" as="geometry" />
        </mxCell>
        <mxCell id="PnTi4dvMfxkBQY3S4DTA-19" style="edgeStyle=orthogonalEdgeStyle;shape=connector;rounded=0;orthogonalLoop=1;jettySize=auto;html=1;exitX=0.5;exitY=0;exitDx=0;exitDy=0;labelBackgroundColor=default;strokeColor=default;fontFamily=Helvetica;fontSize=11;fontColor=default;startArrow=none;startFill=0;endArrow=none;endFill=0;" parent="1" source="naudl5dFCF3qfg-9gcWL-2" edge="1">
          <mxGeometry relative="1" as="geometry">
            <mxPoint x="540" y="160" as="targetPoint" />
          </mxGeometry>
        </mxCell>
        <mxCell id="PnTi4dvMfxkBQY3S4DTA-22" style="edgeStyle=orthogonalEdgeStyle;shape=connector;rounded=0;orthogonalLoop=1;jettySize=auto;html=1;exitX=0.5;exitY=1;exitDx=0;exitDy=0;labelBackgroundColor=default;strokeColor=default;fontFamily=Helvetica;fontSize=11;fontColor=default;startArrow=none;startFill=0;endArrow=none;endFill=0;" parent="1" source="naudl5dFCF3qfg-9gcWL-2" edge="1">
          <mxGeometry relative="1" as="geometry">
            <mxPoint x="540" y="280" as="targetPoint" />
          </mxGeometry>
        </mxCell>
        <mxCell id="naudl5dFCF3qfg-9gcWL-2" value="Loop for each letter&lt;br&gt;in the message" style="rounded=1;whiteSpace=wrap;html=1;arcSize=47;" parent="1" vertex="1">
          <mxGeometry x="480" y="200" width="120" height="60" as="geometry" />
        </mxCell>
        <mxCell id="PnTi4dvMfxkBQY3S4DTA-9" style="edgeStyle=orthogonalEdgeStyle;shape=connector;rounded=0;orthogonalLoop=1;jettySize=auto;html=1;exitX=0.5;exitY=1;exitDx=0;exitDy=0;entryX=0.5;entryY=0;entryDx=0;entryDy=0;labelBackgroundColor=default;strokeColor=default;fontFamily=Helvetica;fontSize=11;fontColor=default;startArrow=none;startFill=0;endArrow=none;endFill=0;" parent="1" source="PnTi4dvMfxkBQY3S4DTA-1" target="PnTi4dvMfxkBQY3S4DTA-2" edge="1">
          <mxGeometry relative="1" as="geometry" />
        </mxCell>
        <mxCell id="PnTi4dvMfxkBQY3S4DTA-21" style="edgeStyle=orthogonalEdgeStyle;shape=connector;rounded=0;orthogonalLoop=1;jettySize=auto;html=1;exitX=0.5;exitY=0;exitDx=0;exitDy=0;labelBackgroundColor=default;strokeColor=default;fontFamily=Helvetica;fontSize=11;fontColor=default;startArrow=none;startFill=0;endArrow=none;endFill=0;" parent="1" source="PnTi4dvMfxkBQY3S4DTA-1" edge="1">
          <mxGeometry relative="1" as="geometry">
            <mxPoint x="220" y="280" as="targetPoint" />
          </mxGeometry>
        </mxCell>
        <mxCell id="PnTi4dvMfxkBQY3S4DTA-1" value="&lt;font style=&quot;font-size: 11px;&quot; face=&quot;Helvetica&quot;&gt;Get ASCII value&lt;/font&gt;" style="rounded=0;whiteSpace=wrap;html=1;fontFamily=Lucida Console;fontSize=12;fontColor=default;" parent="1" vertex="1">
          <mxGeometry x="160" y="320" width="120" height="60" as="geometry" />
        </mxCell>
        <mxCell id="PnTi4dvMfxkBQY3S4DTA-10" style="edgeStyle=orthogonalEdgeStyle;shape=connector;rounded=0;orthogonalLoop=1;jettySize=auto;html=1;exitX=0.5;exitY=1;exitDx=0;exitDy=0;entryX=0.5;entryY=0;entryDx=0;entryDy=0;labelBackgroundColor=default;strokeColor=default;fontFamily=Helvetica;fontSize=11;fontColor=default;startArrow=none;startFill=0;endArrow=none;endFill=0;" parent="1" source="PnTi4dvMfxkBQY3S4DTA-2" target="PnTi4dvMfxkBQY3S4DTA-3" edge="1">
          <mxGeometry relative="1" as="geometry" />
        </mxCell>
        <mxCell id="PnTi4dvMfxkBQY3S4DTA-2" value="Is ASCII value&lt;br&gt;65 to 90?" style="shape=hexagon;perimeter=hexagonPerimeter2;whiteSpace=wrap;html=1;fixedSize=1;fontFamily=Helvetica;fontSize=11;fontColor=default;" parent="1" vertex="1">
          <mxGeometry x="160" y="440" width="120" height="60" as="geometry" />
        </mxCell>
        <mxCell id="PnTi4dvMfxkBQY3S4DTA-3" value="&lt;font style=&quot;font-size: 11px;&quot; face=&quot;Helvetica&quot;&gt;Add 32 to ASCII value&lt;/font&gt;" style="rounded=0;whiteSpace=wrap;html=1;fontFamily=Lucida Console;fontSize=12;fontColor=default;" parent="1" vertex="1">
          <mxGeometry x="160" y="560" width="120" height="60" as="geometry" />
        </mxCell>
        <mxCell id="PnTi4dvMfxkBQY3S4DTA-14" style="edgeStyle=orthogonalEdgeStyle;shape=connector;rounded=0;orthogonalLoop=1;jettySize=auto;html=1;exitX=0.5;exitY=1;exitDx=0;exitDy=0;entryX=0.5;entryY=0;entryDx=0;entryDy=0;labelBackgroundColor=default;strokeColor=default;fontFamily=Helvetica;fontSize=11;fontColor=default;startArrow=none;startFill=0;endArrow=none;endFill=0;" parent="1" source="PnTi4dvMfxkBQY3S4DTA-4" target="PnTi4dvMfxkBQY3S4DTA-6" edge="1">
          <mxGeometry relative="1" as="geometry" />
        </mxCell>
        <mxCell id="PnTi4dvMfxkBQY3S4DTA-20" style="edgeStyle=orthogonalEdgeStyle;shape=connector;rounded=0;orthogonalLoop=1;jettySize=auto;html=1;exitX=0.5;exitY=0;exitDx=0;exitDy=0;labelBackgroundColor=default;strokeColor=default;fontFamily=Helvetica;fontSize=11;fontColor=default;startArrow=none;startFill=0;endArrow=none;endFill=0;" parent="1" source="PnTi4dvMfxkBQY3S4DTA-4" edge="1">
          <mxGeometry relative="1" as="geometry">
            <mxPoint x="540" y="280" as="targetPoint" />
          </mxGeometry>
        </mxCell>
        <mxCell id="PnTi4dvMfxkBQY3S4DTA-4" value="Is ASCII value&lt;br&gt;95 to 122?" style="shape=hexagon;perimeter=hexagonPerimeter2;whiteSpace=wrap;html=1;fixedSize=1;fontFamily=Helvetica;fontSize=11;fontColor=default;" parent="1" vertex="1">
          <mxGeometry x="480" y="320" width="120" height="60" as="geometry" />
        </mxCell>
        <mxCell id="PnTi4dvMfxkBQY3S4DTA-15" style="edgeStyle=orthogonalEdgeStyle;shape=connector;rounded=0;orthogonalLoop=1;jettySize=auto;html=1;exitX=0.5;exitY=0;exitDx=0;exitDy=0;labelBackgroundColor=default;strokeColor=default;fontFamily=Helvetica;fontSize=11;fontColor=default;startArrow=none;startFill=0;endArrow=none;endFill=0;" parent="1" source="PnTi4dvMfxkBQY3S4DTA-5" edge="1">
          <mxGeometry relative="1" as="geometry">
            <mxPoint x="380" y="400" as="targetPoint" />
          </mxGeometry>
        </mxCell>
        <mxCell id="PnTi4dvMfxkBQY3S4DTA-5" value="&lt;font style=&quot;font-size: 11px;&quot; face=&quot;Helvetica&quot;&gt;Add key value&lt;br&gt;to ASCII value&lt;/font&gt;" style="rounded=0;whiteSpace=wrap;html=1;fontFamily=Lucida Console;fontSize=12;fontColor=default;" parent="1" vertex="1">
          <mxGeometry x="320" y="440" width="120" height="60" as="geometry" />
        </mxCell>
        <mxCell id="PnTi4dvMfxkBQY3S4DTA-13" style="edgeStyle=orthogonalEdgeStyle;shape=connector;rounded=0;orthogonalLoop=1;jettySize=auto;html=1;exitX=0.5;exitY=1;exitDx=0;exitDy=0;entryX=0.5;entryY=0;entryDx=0;entryDy=0;labelBackgroundColor=default;strokeColor=default;fontFamily=Helvetica;fontSize=11;fontColor=default;startArrow=none;startFill=0;endArrow=none;endFill=0;" parent="1" source="PnTi4dvMfxkBQY3S4DTA-6" target="PnTi4dvMfxkBQY3S4DTA-7" edge="1">
          <mxGeometry relative="1" as="geometry" />
        </mxCell>
        <mxCell id="PnTi4dvMfxkBQY3S4DTA-6" value="Is ASCII value&lt;br&gt;&amp;gt; 122?" style="shape=hexagon;perimeter=hexagonPerimeter2;whiteSpace=wrap;html=1;fixedSize=1;fontFamily=Helvetica;fontSize=11;fontColor=default;" parent="1" vertex="1">
          <mxGeometry x="480" y="440" width="120" height="60" as="geometry" />
        </mxCell>
        <mxCell id="PnTi4dvMfxkBQY3S4DTA-7" value="&lt;font style=&quot;font-size: 11px;&quot; face=&quot;Helvetica&quot;&gt;Subtract 26 from&lt;br&gt;ASCII value&lt;/font&gt;" style="rounded=0;whiteSpace=wrap;html=1;fontFamily=Lucida Console;fontSize=12;fontColor=default;" parent="1" vertex="1">
          <mxGeometry x="480" y="560" width="120" height="60" as="geometry" />
        </mxCell>
        <mxCell id="PnTi4dvMfxkBQY3S4DTA-16" style="edgeStyle=orthogonalEdgeStyle;shape=connector;rounded=0;orthogonalLoop=1;jettySize=auto;html=1;exitX=0.5;exitY=0;exitDx=0;exitDy=0;labelBackgroundColor=default;strokeColor=default;fontFamily=Helvetica;fontSize=11;fontColor=default;startArrow=none;startFill=0;endArrow=none;endFill=0;" parent="1" source="PnTi4dvMfxkBQY3S4DTA-8" edge="1">
          <mxGeometry relative="1" as="geometry">
            <mxPoint x="700" y="400" as="targetPoint" />
          </mxGeometry>
        </mxCell>
        <mxCell id="PnTi4dvMfxkBQY3S4DTA-8" value="&lt;font face=&quot;Helvetica&quot;&gt;&lt;span style=&quot;font-size: 11px;&quot;&gt;Add ASCII &lt;br&gt;character to&lt;br&gt;cipher text&lt;/span&gt;&lt;/font&gt;" style="rounded=0;whiteSpace=wrap;html=1;fontFamily=Lucida Console;fontSize=12;fontColor=default;" parent="1" vertex="1">
          <mxGeometry x="640" y="440" width="120" height="60" as="geometry" />
        </mxCell>
        <mxCell id="PnTi4dvMfxkBQY3S4DTA-17" value="" style="endArrow=none;html=1;rounded=0;labelBackgroundColor=default;strokeColor=default;fontFamily=Helvetica;fontSize=11;fontColor=default;shape=connector;" parent="1" edge="1">
          <mxGeometry width="50" height="50" relative="1" as="geometry">
            <mxPoint x="380" y="400" as="sourcePoint" />
            <mxPoint x="700" y="400" as="targetPoint" />
          </mxGeometry>
        </mxCell>
        <mxCell id="PnTi4dvMfxkBQY3S4DTA-24" value="" style="endArrow=none;html=1;rounded=0;labelBackgroundColor=default;strokeColor=default;fontFamily=Helvetica;fontSize=11;fontColor=default;shape=connector;" parent="1" edge="1">
          <mxGeometry width="50" height="50" relative="1" as="geometry">
            <mxPoint x="220" y="280" as="sourcePoint" />
            <mxPoint x="540" y="280" as="targetPoint" />
          </mxGeometry>
        </mxCell>
        <mxCell id="PnTi4dvMfxkBQY3S4DTA-25" value="" style="endArrow=none;html=1;rounded=0;labelBackgroundColor=default;strokeColor=default;fontFamily=Helvetica;fontSize=11;fontColor=default;shape=connector;" parent="1" edge="1">
          <mxGeometry width="50" height="50" relative="1" as="geometry">
            <mxPoint x="220" y="160" as="sourcePoint" />
            <mxPoint x="700" y="160" as="targetPoint" />
          </mxGeometry>
        </mxCell>
        <mxCell id="MsXQw97fwFRbFhlOeUjv-2" style="edgeStyle=orthogonalEdgeStyle;rounded=0;orthogonalLoop=1;jettySize=auto;html=1;exitX=0.5;exitY=0;exitDx=0;exitDy=0;endArrow=none;endFill=0;" parent="1" source="MsXQw97fwFRbFhlOeUjv-1" edge="1">
          <mxGeometry relative="1" as="geometry">
            <mxPoint x="700" y="160" as="targetPoint" />
          </mxGeometry>
        </mxCell>
        <mxCell id="MsXQw97fwFRbFhlOeUjv-1" value="&lt;font face=&quot;Helvetica&quot;&gt;&lt;span style=&quot;font-size: 11px;&quot;&gt;Return cipher text&lt;/span&gt;&lt;/font&gt;" style="rounded=0;whiteSpace=wrap;html=1;fontFamily=Lucida Console;fontSize=12;fontColor=default;" parent="1" vertex="1">
          <mxGeometry x="640" y="200" width="120" height="60" as="geometry" />
        </mxCell>
        <mxCell id="uPzhVEWbCUpj4W8JSAq3-2" style="edgeStyle=orthogonalEdgeStyle;rounded=0;orthogonalLoop=1;jettySize=auto;html=1;exitX=0.5;exitY=0;exitDx=0;exitDy=0;endArrow=none;endFill=0;" parent="1" source="uPzhVEWbCUpj4W8JSAq3-1" edge="1">
          <mxGeometry relative="1" as="geometry">
            <mxPoint x="380" y="160" as="targetPoint" />
          </mxGeometry>
        </mxCell>
        <mxCell id="uPzhVEWbCUpj4W8JSAq3-1" value="Set ke&lt;font style=&quot;font-size: 11px;&quot; face=&quot;Helvetica&quot;&gt;y to remainder&lt;/font&gt;&lt;div&gt;&lt;font style=&quot;font-size: 11px;&quot; face=&quot;Helvetica&quot;&gt;of key&amp;nbsp;&lt;span style=&quot;color: rgb(31, 31, 31); text-align: left; background-color: rgb(255, 255, 255);&quot;&gt;÷ 26&lt;/span&gt;&lt;/font&gt;&lt;/div&gt;" style="rounded=0;whiteSpace=wrap;html=1;" parent="1" vertex="1">
          <mxGeometry x="320" y="200" width="120" height="60" as="geometry" />
        </mxCell>
      </root>
    </mxGraphModel>
  </diagram>
  <diagram id="bA35DgrzmFnXP9mXUqBx" name="function">
    <mxGraphModel dx="782" dy="539" grid="1" gridSize="10" guides="1" tooltips="1" connect="1" arrows="1" fold="1" page="1" pageScale="1" pageWidth="1169" pageHeight="827" math="0" shadow="0">
      <root>
        <mxCell id="0" />
        <mxCell id="1" parent="0" />
        <mxCell id="KOdq0aEJ3bhY2r8L5KYj-3" style="edgeStyle=orthogonalEdgeStyle;rounded=0;orthogonalLoop=1;jettySize=auto;html=1;exitX=0;exitY=0.5;exitDx=0;exitDy=0;endArrow=none;endFill=0;startArrow=block;startFill=1;" edge="1" parent="1" source="KOdq0aEJ3bhY2r8L5KYj-1">
          <mxGeometry relative="1" as="geometry">
            <mxPoint x="240" y="280" as="targetPoint" />
          </mxGeometry>
        </mxCell>
        <mxCell id="KOdq0aEJ3bhY2r8L5KYj-4" style="edgeStyle=orthogonalEdgeStyle;shape=connector;rounded=0;orthogonalLoop=1;jettySize=auto;html=1;exitX=1;exitY=0.5;exitDx=0;exitDy=0;labelBackgroundColor=default;strokeColor=default;fontFamily=Helvetica;fontSize=11;fontColor=default;endArrow=block;endFill=1;" edge="1" parent="1" source="KOdq0aEJ3bhY2r8L5KYj-1">
          <mxGeometry relative="1" as="geometry">
            <mxPoint x="560" y="280" as="targetPoint" />
          </mxGeometry>
        </mxCell>
        <mxCell id="KOdq0aEJ3bhY2r8L5KYj-1" value="encode(text, key)" style="rounded=0;whiteSpace=wrap;html=1;" vertex="1" parent="1">
          <mxGeometry x="340" y="250" width="120" height="60" as="geometry" />
        </mxCell>
        <mxCell id="KOdq0aEJ3bhY2r8L5KYj-5" value="&lt;font style=&quot;font-size: 12px;&quot; face=&quot;Lucida Console&quot;&gt;&quot;Hello!&quot;, 1&lt;/font&gt;" style="text;html=1;strokeColor=none;fillColor=none;align=left;verticalAlign=middle;whiteSpace=wrap;rounded=0;fontFamily=Helvetica;fontSize=11;fontColor=default;" vertex="1" parent="1">
          <mxGeometry x="240" y="250" width="90" height="30" as="geometry" />
        </mxCell>
        <mxCell id="KOdq0aEJ3bhY2r8L5KYj-6" value="&lt;font style=&quot;font-size: 12px;&quot; face=&quot;Lucida Console&quot;&gt;&quot;ifmmp&quot;&lt;/font&gt;" style="text;html=1;strokeColor=none;fillColor=none;align=right;verticalAlign=middle;whiteSpace=wrap;rounded=0;fontFamily=Helvetica;fontSize=11;fontColor=default;" vertex="1" parent="1">
          <mxGeometry x="500" y="250" width="60" height="30" as="geometry" />
        </mxCell>
        <mxCell id="KOdq0aEJ3bhY2r8L5KYj-8" style="edgeStyle=orthogonalEdgeStyle;rounded=0;orthogonalLoop=1;jettySize=auto;html=1;exitX=0;exitY=0.5;exitDx=0;exitDy=0;endArrow=none;endFill=0;startArrow=block;startFill=1;" edge="1" parent="1" source="KOdq0aEJ3bhY2r8L5KYj-10">
          <mxGeometry relative="1" as="geometry">
            <mxPoint x="240" y="390" as="targetPoint" />
          </mxGeometry>
        </mxCell>
        <mxCell id="KOdq0aEJ3bhY2r8L5KYj-9" style="edgeStyle=orthogonalEdgeStyle;shape=connector;rounded=0;orthogonalLoop=1;jettySize=auto;html=1;exitX=1;exitY=0.5;exitDx=0;exitDy=0;labelBackgroundColor=default;strokeColor=default;fontFamily=Helvetica;fontSize=11;fontColor=default;endArrow=block;endFill=1;" edge="1" parent="1" source="KOdq0aEJ3bhY2r8L5KYj-10">
          <mxGeometry relative="1" as="geometry">
            <mxPoint x="560" y="390" as="targetPoint" />
          </mxGeometry>
        </mxCell>
        <mxCell id="KOdq0aEJ3bhY2r8L5KYj-10" value="encode(text, key)" style="rounded=0;whiteSpace=wrap;html=1;" vertex="1" parent="1">
          <mxGeometry x="340" y="360" width="120" height="60" as="geometry" />
        </mxCell>
        <mxCell id="KOdq0aEJ3bhY2r8L5KYj-11" value="&lt;font style=&quot;font-size: 12px;&quot; face=&quot;Lucida Console&quot;&gt;&quot;abc XYZ&quot;, 3&lt;/font&gt;" style="text;html=1;strokeColor=none;fillColor=none;align=left;verticalAlign=middle;whiteSpace=wrap;rounded=0;fontFamily=Helvetica;fontSize=11;fontColor=default;" vertex="1" parent="1">
          <mxGeometry x="240" y="360" width="90" height="30" as="geometry" />
        </mxCell>
        <mxCell id="KOdq0aEJ3bhY2r8L5KYj-12" value="&lt;font style=&quot;font-size: 12px;&quot; face=&quot;Lucida Console&quot;&gt;&quot;defabc&quot;&lt;/font&gt;" style="text;html=1;strokeColor=none;fillColor=none;align=right;verticalAlign=middle;whiteSpace=wrap;rounded=0;fontFamily=Helvetica;fontSize=11;fontColor=default;" vertex="1" parent="1">
          <mxGeometry x="500" y="360" width="60" height="30" as="geometry" />
        </mxCell>
      </root>
    </mxGraphModel>
  </diagram>
</mxfile>
